{
    "asset" : {
        "generator" : "Khronos glTF Blender I/O v1.4.40",
        "version" : "2.0"
    },
    "scene" : 0,
    "scenes" : [
        {
            "name" : "Scene",
            "nodes" : [
                0,
                1,
                2
            ]
        }
    ],
    "nodes" : [
        {
            "name" : "Light",
            "rotation" : [
                0.16907575726509094,
                0.7558803558349609,
                -0.27217137813568115,
                0.570947527885437
            ],
            "translation" : [
                -3.6613895893096924,
                14.347829818725586,
                -4.6061882972717285
            ]
        },
        {
            "name" : "Camera",
            "rotation" : [
                0.483536034822464,
                0.33687159419059753,
                -0.20870360732078552,
                0.7804827094078064
            ],
            "translation" : [
                3.4991846084594727,
                17.390169143676758,
                6.892524719238281
            ]
        },
        {
            "mesh" : 0,
            "name" : "BezierCurve",
            "rotation" : [
                0.008388322778046131,
                -0.7516374588012695,
                -0.6595203280448914,
                -0.0019141712691634893
            ],
            "scale" : [
                0.7303075790405273,
                0.7303075194358826,
                0.7303075790405273
            ],
            "translation" : [
                0,
                2.340787410736084,
                0
            ]
        }
    ],
    "materials" : [
        {
            "doubleSided" : true,
            "name" : "Material.001",
            "pbrMetallicRoughness" : {
                "baseColorTexture" : {
                    "index" : 0,
                    "texCoord" : 0
                },
                "metallicFactor" : 0,
                "roughnessFactor" : 0.5
            }
        }
    ],
    "meshes" : [
        {
            "name" : "BezierCurve.001",
            "primitives" : [
                {
                    "attributes" : {
                        "POSITION" : 0,
                        "NORMAL" : 1,
                        "TEXCOORD_0" : 2
                    },
                    "indices" : 3,
                    "material" : 0
                }
            ]
        }
    ],
    "textures" : [
        {
            "sampler" : 0,
            "source" : 0
        }
    ],
    "images" : [
        {
            "bufferView" : 4,
            "mimeType" : "image/png",
            "name" : "Material"
        }
    ],
    "accessors" : [
        {
            "bufferView" : 0,
            "componentType" : 5126,
            "count" : 1998,
            "max" : [
                3.0671169757843018,
                1.0093423128128052,
                4.284259796142578
            ],
            "min" : [
                -3.8408493995666504,
                -0.8172231912612915,
                -2.6578621864318848
            ],
            "type" : "VEC3"
        },
        {
            "bufferView" : 1,
            "componentType" : 5126,
            "count" : 1998,
            "type" : "VEC3"
        },
        {
            "bufferView" : 2,
            "componentType" : 5126,
            "count" : 1998,
            "type" : "VEC2"
        },
        {
            "bufferView" : 3,
            "componentType" : 5123,
            "count" : 3912,
            "type" : "SCALAR"
        }
    ],
    "bufferViews" : [
        {
            "buffer" : 0,
            "byteLength" : 23976,
            "byteOffset" : 0
        },
        {
            "buffer" : 0,
            "byteLength" : 23976,
            "byteOffset" : 23976
        },
        {
            "buffer" : 0,
            "byteLength" : 15984,
            "byteOffset" : 47952
        },
        {
            "buffer" : 0,
            "byteLength" : 7824,
            "byteOffset" : 63936
        },
        {
            "buffer" : 0,
            "byteLength" : 20572,
            "byteOffset" : 71760
        }
    ],
    "samplers" : [
        {
            "magFilter" : 9729,
            "minFilter" : 9986
        }
    ],
    "buffers" : [
        {
            "byteLength" : 92332,
            "uri" : "data:application/octet-stream;base64,"
        }
    ]
}
